<svg width="720" height="960" viewBox="0 0 720 960" fill="none" xmlns="http://www.w3.org/2000/svg">
  <rect width="720" height="960" rx="48" fill="#E14E4E"/>
  <circle cx="548" cy="174" r="104" fill="#F7A5A5" fill-opacity="0.58"/>
  <circle cx="188" cy="752" r="146" fill="#A81F1F" fill-opacity="0.34"/>
  <rect x="210" y="188" width="300" height="508" rx="150" fill="#F06E6E"/>
  <circle cx="304" cy="338" r="38" fill="white"/>
  <circle cx="416" cy="338" r="38" fill="white"/>
  <circle cx="314" cy="350" r="13" fill="#243B53"/>
  <circle cx="406" cy="350" r="13" fill="#243B53"/>
  <path d="M304 414C340 444 380 444 416 414" stroke="#7F1D1D" stroke-width="16" stroke-linecap="round"/>
  <path d="M210 414C146 398 124 328 152 268" stroke="#F06E6E" stroke-width="28" stroke-linecap="round"/>
  <path d="M510 414C574 398 596 328 568 268" stroke="#F06E6E" stroke-width="28" stroke-linecap="round"/>
  <rect x="258" y="548" width="204" height="138" rx="34" fill="#7CC7F7"/>
  <text x="72" y="806" fill="#243B53" font-family="Arial, sans-serif" font-size="58" font-weight="700">Larry</text>
  <text x="72" y="876" fill="#243B53" fill-opacity="0.72" font-family="Arial, sans-serif" font-size="30">Beach Muscle</text>
</svg>
